<svg width="749" height="226" viewBox="0 0 749 226" fill="none" xmlns="http://www.w3.org/2000/svg">
<path d="M21.9653 56.5532H230.564C235.485 56.5532 239.55 60.5469 239.55 65.539V216.943C239.55 221.863 235.556 225.928 230.564 225.928H21.9653C17.0445 225.928 12.9795 221.935 12.9795 216.943V65.539C12.9795 60.6182 17.0445 56.5532 21.9653 56.5532Z" fill="#4989F5"/>
<path d="M227.926 55.3413H24.3187C18.0429 55.3413 13.1221 104.121 13.1221 110.468L124.589 226H227.926C234.273 226 239.407 220.865 239.407 214.518V66.7518C239.407 60.4761 234.273 55.3413 227.926 55.3413Z" fill="url(#paint0_linear)"/>
<path d="M19.2553 16.4027L19.3266 16.1174C21.3948 6.70369 29.7387 0 39.3664 0H74.4538L64.7548 84.9372H0L19.2553 16.4027Z" fill="#7BABF7"/>
<path d="M64.7548 84.9372H129.438V0H74.3825L64.7548 84.9372Z" fill="#3C4BA6"/>
<path d="M194.193 84.9372H129.438V0H184.494L194.193 84.9372Z" fill="#7BABF7"/>
<path d="M239.621 16.4027L239.55 16.1174C237.482 6.70369 229.138 0 219.51 0H184.423L194.122 84.9372H258.877L239.621 16.4027Z" fill="#3F51B5"/>
<path d="M64.8261 84.9375C64.8261 102.766 50.349 117.244 32.5201 117.244C14.6911 117.244 0.213959 102.766 0.213959 84.9375H64.8261V84.9375Z" fill="#709BE0"/>
<path d="M129.51 84.9375C129.51 102.766 115.033 117.244 97.2035 117.244C79.3746 117.244 64.8975 102.766 64.8975 84.9375H129.51V84.9375Z" fill="#3C4BA6"/>
<path d="M194.193 84.9375C194.193 102.766 179.716 117.244 161.887 117.244C144.058 117.244 129.581 102.766 129.581 84.9375H194.193V84.9375Z" fill="#709BE0"/>
<path d="M258.877 84.9375C258.877 102.766 244.4 117.244 226.571 117.244C208.742 117.244 194.264 102.766 194.264 84.9375H258.877V84.9375Z" fill="#3C4BA6"/>
<path d="M226.571 172.513C226.428 170.944 226.285 169.589 226 167.806H190.699C190.699 172.727 190.699 178.147 190.699 183.068H211.095C210.239 187.703 207.529 191.84 203.607 194.478V194.407C201.111 196.047 198.258 197.117 195.334 197.616C192.339 198.187 189.344 198.116 186.348 197.545C183.353 196.903 180.5 195.691 178.004 193.908C174.296 191.269 171.443 187.632 169.803 183.424C169.66 183.068 169.589 182.783 169.447 182.426V182.355C167.806 177.648 167.806 172.513 169.447 167.806C170.588 164.526 172.442 161.459 174.867 158.963C180.572 153.044 189.201 150.762 197.117 153.187C200.184 154.114 202.894 155.754 205.176 157.965L212.093 151.047C213.306 149.835 214.589 148.622 215.731 147.339C212.236 144.058 208.1 141.562 203.678 139.85C195.548 136.927 186.634 136.784 178.432 139.637C178.147 139.708 177.862 139.85 177.577 139.922C168.733 143.274 161.459 149.763 157.18 158.179C155.683 161.174 154.541 164.312 153.9 167.592C149.977 186.99 161.816 206.103 180.928 211.238C187.204 212.878 193.837 212.878 200.112 211.452C205.818 210.168 211.095 207.387 215.445 203.464C220.009 199.257 223.219 193.765 224.93 187.846C226.428 182.925 226.927 177.719 226.571 172.513Z" fill="white"/>
<path d="M331.2 54.5V64.2H354.5C353.8 69.7 352 73.7 349.2 76.5C345.8 79.9 340.5 83.6 331.2 83.6C316.9 83.6 305.7 72 305.7 57.7C305.7 43.4 316.9 31.8 331.2 31.8C338.9 31.8 344.6 34.8 348.7 38.8L355.6 31.9C349.8 26.3 342.1 22 331.2 22C311.5 22.1 295 38.1 295 57.7C295 77.3 311.5 93.3 331.2 93.3C341.8 93.3 349.8 89.8 356.1 83.3C362.5 76.9 364.5 67.8 364.5 60.5C364.5 58.2 364.3 56.1 364 54.4H331.2V54.5Z" fill="#626262"/>
<path d="M393.6 83.6001C386.6 83.6001 380.6 77.9001 380.6 69.7001C380.6 61.4001 386.6 55.8001 393.6 55.8001C400.6 55.8001 406.6 61.5001 406.6 69.7001C406.6 77.8001 400.6 83.6001 393.6 83.6001ZM393.6 46.6001C380.9 46.6001 370.5 56.3001 370.5 69.6001C370.5 82.8001 380.9 92.6001 393.6 92.6001C406.3 92.6001 416.7 82.9001 416.7 69.6001C416.7 56.3001 406.3 46.6001 393.6 46.6001Z" fill="#626262"/>
<path d="M495.2 83.6002C488.2 83.6002 482.9 77.7002 482.9 69.7002C482.9 61.6002 488.2 55.8002 495.2 55.8002C502.1 55.8002 507.5 61.7002 507.5 69.8002C507.5 77.7002 502.1 83.6002 495.2 83.6002ZM506.8 51.8002H506.4C504.1 49.1002 499.8 46.7002 494.3 46.7002C482.8 46.7002 472.8 56.7002 472.8 69.7002C472.8 82.6002 482.8 92.7002 494.3 92.7002C499.8 92.7002 504.2 90.2002 506.4 87.5002H506.8V90.7002C506.8 99.5002 502.1 104.2 494.5 104.2C488.3 104.2 484.5 99.8002 482.9 96.0002L474.1 99.6002C476.6 105.7 483.3 113.2 494.5 113.2C506.3 113.2 516.4 106.2 516.4 89.2002V47.8002H506.8V51.8002Z" fill="#626262"/>
<path d="M445.1 83.6001C438.1 83.6001 432.1 77.9001 432.1 69.7001C432.1 61.4001 438.1 55.8001 445.1 55.8001C452.1 55.8001 458.1 61.5001 458.1 69.7001C458.1 77.8001 452 83.6001 445.1 83.6001ZM445.1 46.6001C432.4 46.6001 422 56.3001 422 69.6001C422 82.8001 432.4 92.6001 445.1 92.6001C457.8 92.6001 468.2 82.9001 468.2 69.6001C468.2 56.3001 457.8 46.6001 445.1 46.6001Z" fill="#626262"/>
<path d="M534.2 23.1001H524.3V92.7001H534.2V23.1001Z" fill="#626262"/>
<path d="M564.2 55.3001C568.3 55.3001 571.8 57.4001 572.9 60.4001L552.1 69.0001C552.1 59.3001 559 55.3001 564.2 55.3001ZM564.9 83.6001C559.8 83.6001 556.1 81.3001 553.7 76.6001L584.5 63.9001L583.5 61.3001C581.6 56.2001 575.7 46.6001 563.8 46.6001C552 46.6001 542.1 55.9001 542.1 69.6001C542.1 82.5001 551.8 92.6001 564.9 92.6001C575.4 92.6001 581.5 86.1001 584.1 82.4001L576.3 77.2001C573.6 81.0001 570.1 83.6001 564.9 83.6001Z" fill="#626262"/>
<path d="M295 130.7H305.7L325.6 181.8H326L345.9 130.7H356.6V193.1H349.3V153.5L349.6 141.6H349.3L328.9 193.1H322.8L302.4 141.6H302L302.3 153.5V193.1H295V130.7Z" fill="#626262"/>
<path d="M378.6 190.3L360.2 148.6H368.2L382.1 181.6H382.3L395.7 148.6H403.7L376.3 211.9H368.6L378.6 190.3Z" fill="#626262"/>
<path d="M426 130.7H448.4C451.5 130.7 454.5 131.4 457.2 132.9C460 134.4 462.2 136.4 463.8 138.9C465.4 141.5 466.2 144.3 466.2 147.5C466.2 150.5 465.4 153.2 463.9 155.4C462.4 157.7 460.3 159.4 457.7 160.6V161C460.8 162 463.4 163.8 465.4 166.4C467.4 169 468.4 171.9 468.4 175.4C468.4 178.8 467.5 181.8 465.8 184.5C464.1 187.2 461.8 189.3 458.9 190.8C456 192.3 452.9 193.1 449.6 193.1H426V130.7ZM448.4 157.7C450.5 157.7 452.3 157.2 453.9 156.2C455.5 155.2 456.7 153.9 457.6 152.4C458.5 150.9 458.9 149.3 458.9 147.7C458.9 146.1 458.5 144.6 457.6 143C456.8 141.5 455.6 140.2 454 139.2C452.5 138.2 450.7 137.7 448.6 137.7H433.2V157.7H448.4ZM450.1 186C452.2 186 454.1 185.5 455.7 184.4C457.4 183.4 458.6 182 459.5 180.3C460.4 178.6 460.9 176.9 460.9 175.2C460.9 173.5 460.4 171.8 459.5 170.1C458.6 168.4 457.3 167.1 455.6 166.1C453.9 165.1 452 164.6 449.8 164.6H433.4V185.9H450.1V186Z" fill="#626262"/>
<path d="M480.2 189.8C477.4 186.7 476 182.3 476 176.6V148.6H483.4V175.4C483.4 179.6 484.4 182.7 486.3 184.7C488.2 186.7 490.8 187.7 494.1 187.7C496.6 187.7 498.8 187 500.8 185.7C502.7 184.4 504.3 182.6 505.3 180.5C506.4 178.4 506.9 176.1 506.9 173.7V148.6H514.3V193H507.2V186.6H506.9C505.7 188.8 503.7 190.7 501.1 192.2C498.4 193.7 495.6 194.5 492.6 194.5C487.1 194.5 483 192.9 480.2 189.8Z" fill="#626262"/>
<path d="M526.7 191.1C523.5 188.9 521.2 186 519.9 182.5L526.5 179.5C527.6 182.2 529.2 184.2 531.4 185.7C533.6 187.2 536 187.9 538.6 187.9C541.4 187.9 543.8 187.3 545.7 186.2C547.7 185.1 548.7 183.5 548.7 181.4C548.7 179.5 547.9 178 546.3 176.9C544.7 175.8 542.3 174.8 538.9 174L533.5 172.6C530 171.7 527.1 170.2 524.8 168.2C522.5 166.1 521.4 163.4 521.4 160.1C521.4 157.5 522.2 155.3 523.7 153.3C525.2 151.4 527.3 149.9 529.8 148.8C532.4 147.8 535.1 147.2 538.1 147.2C542 147.2 545.5 148 548.5 149.7C551.6 151.4 553.7 153.7 555 156.8L548.6 159.8C546.6 155.9 543.1 153.9 538.1 153.9C535.7 153.9 533.5 154.5 531.7 155.6C529.9 156.7 529 158.2 529 159.9C529 161.5 529.6 162.8 530.9 163.9C532.2 164.9 534.1 165.7 536.7 166.4L543.1 168.1C547.5 169.2 550.7 170.8 552.9 173C555.1 175.2 556.2 177.8 556.2 181C556.2 183.7 555.4 186.1 553.8 188.2C552.2 190.3 550.1 191.8 547.4 192.9C544.7 194 541.8 194.6 538.5 194.6C533.8 194.5 529.9 193.4 526.7 191.1Z" fill="#626262"/>
<path d="M562.9 138.9C561.9 137.9 561.3 136.6 561.3 135.2C561.3 133.7 561.8 132.5 562.9 131.5C563.9 130.5 565.2 130 566.6 130C568.1 130 569.3 130.5 570.3 131.5C571.3 132.5 571.9 133.8 571.9 135.2C571.9 136.7 571.4 137.9 570.4 138.9C569.4 139.9 568.1 140.5 566.6 140.5C565.2 140.5 564 139.9 562.9 138.9ZM563 148.7H570.3V193.1H563V148.7Z" fill="#626262"/>
<path d="M581.5 148.7H588.6V155.2H588.9C590.1 153 592.1 151.1 594.7 149.6C597.4 148.1 600.2 147.3 603.2 147.3C608.5 147.3 612.6 148.9 615.4 152C618.2 155.1 619.6 159.3 619.6 164.7V193.2H612.2V165.8C612.2 161.7 611.2 158.7 609.2 156.8C607.2 154.9 604.5 154 601.1 154C598.7 154 596.6 154.7 594.7 156C592.8 157.3 591.3 159.1 590.3 161.3C589.3 163.5 588.7 165.8 588.7 168.1V193.1H581.3V148.7H581.5Z" fill="#626262"/>
<path d="M637.1 191.4C633.7 189.4 631.1 186.6 629.2 183C627.3 179.4 626.4 175.4 626.4 170.9C626.4 166.6 627.3 162.7 629.1 159C630.9 155.4 633.4 152.5 636.6 150.4C639.9 148.3 643.6 147.2 647.9 147.2C652.3 147.2 656 148.2 659.2 150.1C662.4 152 664.8 154.7 666.6 158.2C668.3 161.6 669.2 165.5 669.2 170C669.2 170.9 669.1 171.6 668.9 172.3H633.8C634 175.7 634.8 178.5 636.2 180.8C637.7 183.1 639.5 184.9 641.7 186C643.9 187.2 646.3 187.7 648.7 187.7C654.4 187.7 658.8 185 661.9 179.7L668.2 182.8C666.3 186.4 663.7 189.2 660.4 191.3C657.1 193.4 653.2 194.4 648.5 194.4C644.2 194.5 640.4 193.5 637.1 191.4ZM661.3 166.2C661.2 164.3 660.7 162.5 659.7 160.6C658.8 158.7 657.3 157.2 655.3 155.9C653.3 154.6 650.8 154 647.8 154C644.3 154 641.4 155.1 639 157.4C636.6 159.6 635 162.6 634.3 166.2H661.3Z" fill="#626262"/>
<path d="M679.4 191.1C676.2 188.9 673.9 186 672.6 182.5L679.2 179.5C680.3 182.2 681.9 184.2 684.1 185.7C686.3 187.2 688.7 187.9 691.3 187.9C694.1 187.9 696.5 187.3 698.4 186.2C700.4 185.1 701.4 183.5 701.4 181.4C701.4 179.5 700.6 178 699 176.9C697.4 175.8 695 174.8 691.6 174L686.2 172.6C682.7 171.7 679.8 170.2 677.5 168.2C675.2 166.1 674.1 163.4 674.1 160.1C674.1 157.5 674.9 155.3 676.4 153.3C677.9 151.3 680 149.9 682.5 148.8C685.1 147.8 687.8 147.2 690.8 147.2C694.7 147.2 698.2 148 701.2 149.7C704.3 151.4 706.4 153.7 707.7 156.8L701.3 159.8C699.3 155.9 695.8 153.9 690.8 153.9C688.4 153.9 686.2 154.5 684.4 155.6C682.6 156.7 681.7 158.2 681.7 159.9C681.7 161.5 682.3 162.8 683.6 163.9C684.9 164.9 686.8 165.7 689.4 166.4L695.8 168.1C700.2 169.2 703.4 170.8 705.6 173C707.8 175.2 708.9 177.8 708.9 181C708.9 183.7 708.1 186.1 706.5 188.2C704.9 190.3 702.8 191.8 700.1 192.9C697.4 194 694.5 194.6 691.2 194.6C686.6 194.5 682.6 193.4 679.4 191.1Z" fill="#626262"/>
<path d="M719.1 191.1C715.9 188.9 713.6 186 712.3 182.5L718.9 179.5C720 182.2 721.6 184.2 723.8 185.7C726 187.2 728.4 187.9 731 187.9C733.8 187.9 736.2 187.3 738.1 186.2C740.1 185.1 741.1 183.5 741.1 181.4C741.1 179.5 740.3 178 738.7 176.9C737.1 175.8 734.7 174.8 731.3 174L725.9 172.6C722.4 171.7 719.5 170.2 717.2 168.2C714.9 166.1 713.8 163.4 713.8 160.1C713.8 157.5 714.6 155.3 716.1 153.3C717.6 151.3 719.7 149.9 722.2 148.8C724.8 147.8 727.5 147.2 730.5 147.2C734.4 147.2 737.9 148 740.9 149.7C744 151.4 746.1 153.7 747.4 156.8L741 159.8C739 155.9 735.5 153.9 730.5 153.9C728.1 153.9 725.9 154.5 724.1 155.6C722.3 156.7 721.4 158.2 721.4 159.9C721.4 161.5 722 162.8 723.3 163.9C724.6 164.9 726.5 165.7 729.1 166.4L735.5 168.1C739.9 169.2 743.1 170.8 745.3 173C747.5 175.2 748.6 177.8 748.6 181C748.6 183.7 747.8 186.1 746.2 188.2C744.6 190.3 742.5 191.8 739.8 192.9C737.1 194 734.2 194.6 730.9 194.6C726.2 194.5 722.3 193.4 719.1 191.1Z" fill="#626262"/>
<defs>
<linearGradient id="paint0_linear" x1="13.1312" y1="140.632" x2="239.398" y2="140.632" gradientUnits="userSpaceOnUse">
<stop offset="0.03" stop-color="#4079D8"/>
<stop offset="1" stop-color="#4989F5"/>
</linearGradient>
</defs>
</svg>
