<?xml version="1.0" encoding="UTF-8"?>
<svg id="Layer_1" data-name="Layer 1" xmlns="http://www.w3.org/2000/svg" viewBox="0 0 960 960">
  <defs>
    <style>
      .cls-1 {
        fill: #857aeb;
      }

      .cls-1, .cls-2 {
        stroke-width: 0px;
      }
    </style>
  </defs>
  <path class="cls-2" d="M343.65,570.51v-143.18h31.09l45.61,90.82,45-90.82h31.09v143.18h-26.18v-98.8l-39.89,78.34h-20.66l-39.89-78.34v98.8h-26.18,0Z"/>
  <path class="cls-2" d="M548.4,572.96c-8.72,0-15.88-1.41-21.48-4.19-5.6-2.79-9.74-6.52-12.48-11.15s-4.09-9.74-4.09-15.34c0-9.41,3.68-17.05,11.05-22.91,7.36-5.86,18.41-8.8,33.14-8.8h25.77v-2.45c0-6.95-1.97-12.07-5.93-15.34-3.96-3.27-8.87-4.91-14.73-4.91-5.32,0-9.95,1.25-13.91,3.78-3.96,2.53-6.42,6.24-7.36,11.15h-25.57c.69-7.36,3.17-13.78,7.47-19.23,4.3-5.45,9.84-9.64,16.67-12.58s14.45-4.4,22.91-4.4c14.45,0,25.85,3.61,34.16,10.84,8.31,7.24,12.48,17.46,12.48,30.68v62.39h-22.3l-2.45-16.36c-2.99,5.45-7.18,9.95-12.58,13.5s-12.3,5.32-20.76,5.32h0ZM554.33,552.51c7.49,0,13.32-2.45,17.49-7.36,4.17-4.91,6.78-10.97,7.88-18.2h-22.3c-6.95,0-11.94,1.25-14.93,3.78-2.99,2.53-4.5,5.63-4.5,9.31,0,3.96,1.51,7.03,4.5,9.2s6.95,3.27,11.86,3.27Z"/>
  <path class="cls-2" d="M635.33,453.3c-4.78,0-8.69-1.43-11.76-4.3s-4.6-6.47-4.6-10.84,1.53-7.95,4.6-10.74,6.98-4.19,11.76-4.19,8.69,1.41,11.76,4.19c3.07,2.79,4.6,6.37,4.6,10.74s-1.53,7.98-4.6,10.84-6.98,4.3-11.76,4.3ZM622.24,570.51v-101.46h26.18v101.46h-26.18Z"/>
  <path class="cls-2" d="M665.61,570.51v-147.27h26.18v147.27h-26.18Z"/>
  <path class="cls-2" d="M689.13,615.51v-22.3h7.98c4.5,0,7.7-.89,9.61-2.66s2.86-4.78,2.86-9v-112.5h26.18v112.5c0,12.27-3.09,20.99-9.31,26.18-6.21,5.19-14.63,7.77-25.26,7.77h-12.07,0ZM722.88,453.3c-4.78,0-8.69-1.43-11.76-4.3s-4.6-6.47-4.6-10.84,1.53-7.95,4.6-10.74c3.07-2.79,6.98-4.19,11.76-4.19s8.69,1.41,11.76,4.19,4.6,6.37,4.6,10.74-1.53,7.98-4.6,10.84c-3.07,2.86-6.98,4.3-11.76,4.3Z"/>
  <path class="cls-2" d="M802.24,572.96c-10.23,0-19.3-2.17-27.2-6.55-7.9-4.37-14.11-10.51-18.61-18.41s-6.75-17.05-6.75-27.41,2.22-19.84,6.65-28.02c4.42-8.18,10.56-14.55,18.41-19.13s17.08-6.85,27.72-6.85c9.95,0,18.74,2.17,26.39,6.55,7.64,4.37,13.6,10.33,17.9,17.9s6.44,15.98,6.44,25.26c0,1.51-.03,3.07-.1,4.7s-.18,3.35-.31,5.11h-77.11c.54,7.9,3.3,14.11,8.28,18.61,4.99,4.5,11.02,6.75,18.1,6.75,5.32,0,9.79-1.2,13.4-3.58s6.32-5.5,8.08-9.31h26.59c-1.92,6.42-5.09,12.25-9.51,17.49s-9.89,9.38-16.36,12.38c-6.47,2.99-13.81,4.5-21.99,4.5h0ZM802.45,487.87c-6.42,0-12.07,1.82-16.98,5.42s-8.05,9.1-9.41,16.47h50.52c-.41-6.67-2.86-11.99-7.36-15.95s-10.1-5.93-16.77-5.93Z"/>
  <path class="cls-2" d="M908.4,570.51c-10.64,0-19.15-2.58-25.57-7.77s-9.61-14.39-9.61-27.61v-44.18h-17.39v-21.89h17.39l3.07-27.2h23.11v27.2h27.41v21.89h-27.41v44.39c0,4.91,1.05,8.28,3.17,10.13s5.75,2.76,10.94,2.76h12.68v22.3h-17.8Z"/>
  <path class="cls-2" d="M361.96,397c-3.68,0-6.93-.64-9.74-1.89s-5.04-3.07-6.65-5.45-2.45-5.24-2.51-8.62h9.66c.1,2.35.95,4.3,2.53,5.91s3.81,2.4,6.62,2.4c2.43,0,4.37-.59,5.8-1.76,1.43-1.18,2.15-2.74,2.15-4.68s-.64-3.66-1.89-4.81c-1.25-1.15-2.94-2.07-5.04-2.79s-4.35-1.48-6.72-2.3c-3.86-1.33-6.83-3.04-8.85-5.16-2.02-2.1-3.04-4.88-3.04-8.39-.05-2.97.66-5.5,2.12-7.62s3.45-3.76,5.98-4.93,5.45-1.76,8.74-1.76,6.29.59,8.85,1.79,4.55,2.86,6.01,5.01,2.22,4.7,2.33,7.67h-9.82c-.05-1.76-.72-3.32-2.05-4.68s-3.14-2.05-5.47-2.05c-1.99-.05-3.68.43-5.04,1.46s-2.05,2.51-2.05,4.47c0,1.66.54,2.99,1.59,3.96,1.05.97,2.48,1.82,4.3,2.48,1.82.66,3.89,1.38,6.24,2.15,2.48.87,4.76,1.87,6.8,3.02s3.71,2.66,4.93,4.55c1.25,1.89,1.87,4.3,1.87,7.26,0,2.63-.66,5.06-1.99,7.31-1.33,2.25-3.32,4.04-5.93,5.39-2.63,1.36-5.86,2.05-9.66,2.05h-.08Z"/>
  <path class="cls-2" d="M401.9,396.13v-50.11h9.15v50.11h-9.15Z"/>
  <path class="cls-2" d="M435.11,396.13v-50.11h9.15l23.55,35.28v-35.28h9.15v50.11h-9.15l-23.55-35.23v35.23h-9.15Z"/>
  <path class="cls-2" d="M523.75,397c-5.06,0-9.41-1.07-13.04-3.25-3.63-2.17-6.42-5.19-8.39-9.1-1.97-3.89-2.94-8.39-2.94-13.5s.97-9.61,2.94-13.53c1.94-3.91,4.76-6.95,8.39-9.15s7.98-3.3,13.04-3.3c6.01,0,10.94,1.48,14.78,4.47s6.24,7.16,7.18,12.55h-10.1c-.61-2.71-1.94-4.86-3.96-6.42-2.02-1.56-4.7-2.33-8.05-2.33-4.63,0-8.26,1.59-10.89,4.73-2.63,3.14-3.94,7.47-3.94,12.96s1.3,9.79,3.94,12.91,6.26,4.68,10.89,4.68c3.35,0,6.03-.74,8.05-2.17,2.02-1.46,3.35-3.48,3.96-6.06h10.1c-.95,5.16-3.35,9.18-7.18,12.09s-8.77,4.37-14.78,4.37v.03Z"/>
  <path class="cls-2" d="M568.14,396.13v-50.11h9.15v20.84h22.47v-20.84h9.15v50.11h-9.15v-21.84h-22.47v21.84h-9.15Z"/>
  <path class="cls-1" d="M254.32,351.9c-6.26-6.29-15.65-8.21-23.91-4.91l-184.04,73.61c-8.21,3.3-13.55,10.82-13.91,19.66s4.32,16.77,12.22,20.74l54.49,27.23,19.82-19.82-53.59-26.8,165.3-66.12-66.12,165.3-26.8-53.59-19.82,19.82,27.23,54.49c3.81,7.62,11.33,12.25,19.76,12.25h.97c8.85-.36,16.36-5.7,19.66-13.91l73.61-184.07c3.3-8.23,1.38-17.62-4.91-23.91l.03.03Z"/>
</svg>