<svg xmlns="http://www.w3.org/2000/svg" xml:space="preserve" version="1.1" viewBox="0 0 223 57.2">
 <style type="text/css">
 .logo0{fill:#9bdc9f;}
 .logo1{fill:#060f31;}
 </style>
 <g>
 <g id="Calque_1">
 <g id="Calque_1-2" data-name="Calque_1">
 <g id="Groupe_1082">
 <g id="Groupe_1">
 <path id="Tracé_1" class="logo0" d="M36.1,4.8h-18.1c-2.2,0-4.4.4-6.5,1.3-2,.9-3.9,2.2-5.3,3.9-1.5,1.7-2.5,3.7-3,6,0,.6-.2,1.4-.2,2.1,0,2,.4,4,1.2,5.8,1,2.2,2,4.3,3.3,6.3l1.7,3.5,9.6,15.6,2.1,3.5,3-3.4c2.9-3.7,5.2-7.8,6.8-12.2h5.2c8.9,0,16.1-7.1,16.2-16,0-8.9-7.1-16.1-16-16.2h0v-.2ZM6.9,18.3c0-.5,0-1,.2-1.4.4-1.6,1.2-3.1,2.3-4.3,1.1-1.2,2.5-2.2,4.1-2.8,1.5-.6,3-.9,4.6-.9,1.6-.1,3.1.5,4.3,1.5,1.1,1,1.8,2.4,1.7,3.9,0,.5-.1,1-.2,1.5-.4,1.7-1.2,3.3-2.4,4.6-1.3,1.5-2.8,2.8-4.4,3.9-1.7,1.2-3.8,2.5-6.4,3.9-2.5-4.1-3.8-7.4-3.8-9.9ZM36.1,32.8h-7.9v.2h-.2c-1.5,4.5-3.6,8.7-6.2,12.6l-8.8-14.2c2.3-1.3,4.6-2.8,6.8-4.4,1.8-1.3,3.5-2.9,4.9-4.6,2-2.4,3.1-5.5,3.1-8.6s-.4-3.3-1.2-4.7h-.1c0-.1,9.7-.1,9.7-.1,6.5,0,11.8,5.3,11.8,11.9s-5.3,11.9-11.9,11.9h0Z"></path>
 </g>
 <g id="Groupe_2">
 <path id="Tracé_2" class="logo1" d="M63.5,37.7c-1-.4-1.9-1.1-2.7-1.9-.7-.7-1.2-1.6-1.5-2.5l3.6-1.6c.3.8.8,1.6,1.4,2.2.7.6,1.6.9,2.5.9s1.1,0,1.6-.3c.4-.2.7-.5,1-.8.2-.3.3-.7.3-1s0-.7-.4-1-.7-.5-1.1-.6c-.4-.2-1.1-.3-1.9-.5-1-.3-2-.6-3-1-.8-.3-1.5-.9-2-1.6-.6-.8-.9-1.8-.9-2.8s.3-2.2.9-3.2c.6-.9,1.5-1.5,2.5-1.9,1.2-.6,2.4-.8,3.5-.8s2.9.3,4.1,1.1c1.2.7,2.2,1.7,2.9,2.9l-3.5,1.9c-.4-.7-.8-1.2-1.4-1.7s-1.4-.7-2.2-.7-1.2.1-1.7.5c-.4.2-.6.7-.7,1.1,0,.3,0,.7.4.9.3.3.6.4,1,.6.4.1,1,.3,1.7.6,1.1.3,2.1.7,3.1,1.1.8.4,1.6,1,2.1,1.7.6.9,1,2,.9,3.1,0,1.2-.3,2.4-1,3.4-.7.9-1.6,1.6-2.7,2.1s-2.3.7-3.5.7c-1-.2-2.2-.4-3.3-.9Z"></path>
 <path id="Tracé_3" class="logo1" d="M78.2,19.7h4.5v1.9c.5-.7,1.3-1.3,2.1-1.7.8-.4,1.7-.6,2.6-.6,2.2,0,4.2,1.2,5.2,3.2.6-1,1.5-1.9,2.6-2.4s2.3-.8,3.5-.8,2.7.3,3.8,1.1c1,.7,1.8,1.7,2.3,2.8.5,1.2.8,2.5.7,3.8v11.1h-4.6v-10.5c0-1-.2-2.1-.7-3-.5-.8-1.4-1.2-2.3-1.1-.7,0-1.4.2-2.1.6-.6.4-1.1,1-1.3,1.6-.3.7-.5,1.5-.5,2.3v10.1h-4.6v-10.6c0-1-.2-2.1-.7-3-.5-.8-1.4-1.2-2.3-1.1-.7,0-1.5.2-2.1.6s-1.1,1-1.3,1.6c-.3.7-.5,1.5-.5,2.3v10.1h-4.5s.2-18.3.2-18.3Z"></path>
 <path id="Tracé_4" class="logo1" d="M112.4,37.7c-1-.4-1.9-1.1-2.7-1.9s-1.2-1.6-1.6-2.6l3.6-1.6c.3.8.8,1.6,1.4,2.2.7.6,1.6.9,2.5.9s1.1,0,1.6-.3c.4-.2.8-.5,1-.8s.3-.7.3-1-.2-.7-.4-1c-.3-.3-.7-.5-1.1-.6-.4-.2-1.1-.3-1.9-.5-1-.3-2-.6-3-1-.8-.3-1.5-.9-2-1.6-.6-.8-.9-1.8-.9-2.8s.3-2.2.9-3.2c.6-.9,1.5-1.5,2.5-1.9,1.1-.4,2.2-.7,3.4-.6,1.4,0,2.9.3,4.1,1.1,1.2.7,2.2,1.7,2.9,2.9l-3.5,1.9c-.4-.7-.8-1.2-1.4-1.7s-1.4-.7-2.2-.7-1.2.1-1.7.5c-.4.2-.6.7-.7,1.1,0,.3,0,.7.4.9.3.3.6.4,1,.6.4.1,1,.3,1.7.6,1.1.3,2.1.7,3.1,1.1.8.4,1.6,1,2.1,1.7.6.9,1,2,.9,3.1,0,1.2-.3,2.4-1,3.4-.7.9-1.6,1.6-2.7,2.1s-2.3.7-3.5.7c-.8-.3-2-.5-3.1-1h0Z"></path>
 <path id="Tracé_5" class="logo1" d="M127.1,19.7h4.5v1.9c.5-.7,1.3-1.3,2.1-1.7.8-.4,1.7-.6,2.6-.6,2.2,0,4.2,1.2,5.2,3.2.6-1,1.5-1.9,2.6-2.4s2.3-.8,3.5-.8,2.7.3,3.8,1.1c1,.7,1.8,1.7,2.3,2.8.5,1.2.8,2.5.7,3.8v11.1h-4.6v-10.5c0-1-.2-2.1-.7-3-.5-.8-1.4-1.2-2.3-1.1-.7,0-1.4.2-2.1.6-.6.4-1.1,1-1.3,1.6-.3.7-.5,1.5-.5,2.3v10.1h-4.6v-10.6c0-1-.2-2.1-.7-3-.5-.8-1.4-1.2-2.3-1.1-.7,0-1.5.2-2.1.6s-1.1,1-1.3,1.6c-.3.7-.5,1.5-.5,2.3v10.1h-4.5s.2-18.3.2-18.3Z"></path>
 <path id="Tracé_6" class="logo1" d="M162,37.1c-1.4-.8-2.6-2-3.3-3.5-.8-1.5-1.2-3.1-1.2-4.8s.4-3.3,1.2-4.8c.8-1.4,1.9-2.6,3.3-3.5,3.1-1.7,6.8-1.7,9.8,0,1.4.8,2.6,2,3.3,3.5.8,1.5,1.2,3.1,1.2,4.8s-.4,3.3-1.2,4.8-1.9,2.7-3.3,3.5c-3,1.8-6.8,1.8-9.8,0ZM169.6,33.8c.7-.5,1.3-1.2,1.6-2.1s.5-1.9.5-2.9-.4-2.9-1.2-4.1c-.9-1.1-2.2-1.7-3.6-1.6-1,0-1.9.2-2.7.8-.7.5-1.3,1.2-1.6,2-.3.9-.5,1.9-.5,2.9s.2,2,.5,2.9c.3.8.9,1.6,1.6,2.1,1.7,1,3.8,1,5.4,0h0Z"></path>
 <path id="Tracé_7" class="logo1" d="M196.2,12v26h-4.2l-.2-2.1c-.6.8-1.4,1.4-2.3,1.8-1,.4-2,.6-3,.6-1.5,0-3.1-.4-4.3-1.3-1.2-.9-2.2-2.1-2.7-3.5-1.2-3.1-1.2-6.5,0-9.6.6-1.4,1.5-2.6,2.7-3.5s2.7-1.3,4.3-1.3,2,.2,2.9.6c.9.3,1.7.9,2.3,1.7v-9.4s4.5,0,4.5,0ZM190.9,32.8c1.5-2.5,1.5-5.5,0-8-1.6-1.8-4.4-2-6.2-.4-.2.1-.3.3-.5.5-1.5,2.4-1.5,5.5,0,8,1.6,1.9,4.4,2,6.3.4,0-.2.3-.3.4-.5h0Z"></path>
 <path id="Tracé_8" class="logo1" d="M204.1,37.1c-1.4-.8-2.5-2-3.1-3.5-.7-1.5-1.1-3.1-1-4.7,0-1.6.3-3.2,1-4.7.6-1.5,1.7-2.7,3-3.6,1.5-.9,3.2-1.4,5-1.4,1.8-.1,3.5.4,4.9,1.4,1.2.9,2.2,2.1,2.8,3.5s.8,2.9.8,4.4v1.1c0,.2-.1.5-.1.7h-12.6c.4,2.7,2,4,4.6,4s1.6,0,2.4-.5c.8-.3,1.5-.9,2-1.5l3.1,2.7c-.9,1.1-2.1,1.9-3.4,2.5-1.3.6-2.7.8-4.2.8-1.9.2-3.6-.3-5.2-1.2ZM213.1,27.1c-.1-1.1-.5-2.2-1.3-3-.8-.7-1.8-1.1-2.8-1-2.3,0-3.7,1.3-4.2,4h8.3Z"></path>
 </g>
 </g>
 </g>
 </g>
 </g>
</svg>